<?xml version="1.0" standalone="no"?>
<!DOCTYPE svg PUBLIC "-//W3C//DTD SVG 20010904//EN"
 "http://www.w3.org/TR/2001/REC-SVG-20010904/DTD/svg10.dtd">
<svg version="1.0" xmlns="http://www.w3.org/2000/svg"
 width="300.000000pt" height="300.000000pt" viewBox="0 0 300.000000 300.000000"
 preserveAspectRatio="xMidYMid meet">
<metadata>
Created by potrace 1.10, written by Peter Selinger 2001-2011
</metadata>
<g transform="translate(0.000000,300.000000) scale(0.100000,-0.100000)"
fill="#000000" stroke="none">
<path d="M1673 1775 c2 -71 12 -100 19 -53 4 31 22 33 38 3 7 -14 20 -25 28
-25 10 0 7 9 -11 34 -26 33 -26 34 -7 51 11 10 18 21 15 23 -3 3 -19 -7 -35
-23 l-30 -29 0 47 c0 26 -4 47 -9 47 -6 0 -9 -33 -8 -75z"/>
<path d="M1400 1770 l0 -70 50 0 c28 0 50 5 50 10 0 6 -18 10 -40 10 l-40 0 0
60 c0 33 -4 60 -10 60 -6 0 -10 -30 -10 -70z"/>
<path d="M1140 1753 c0 -63 18 -72 22 -10 2 35 7 43 26 45 20 3 22 -1 22 -42
0 -58 18 -61 22 -3 2 35 7 43 26 45 20 3 22 -1 22 -42 0 -26 5 -46 11 -46 6 0
9 19 7 46 -4 55 -26 77 -58 57 -11 -8 -21 -9 -25 -3 -3 5 -21 9 -40 8 l-35 -1
0 -54z"/>
<path d="M1510 1755 c0 -30 5 -55 10 -55 6 0 10 25 10 55 0 30 -4 55 -10 55
-5 0 -10 -25 -10 -55z"/>
<path d="M1560 1768 c0 -20 -3 -43 -6 -52 -3 -9 -1 -16 5 -16 6 0 11 15 11 33
0 41 12 60 36 55 14 -2 20 -13 22 -46 4 -55 22 -54 22 2 0 51 -14 66 -58 63
-30 -2 -32 -5 -32 -39z"/>
<path d="M1781 1791 c-12 -21 0 -36 33 -42 11 -2 21 -10 24 -16 5 -16 -30 -17
-46 -1 -17 17 -27 2 -12 -17 8 -10 25 -15 44 -13 25 2 31 7 31 28 0 19 -7 26
-32 34 -44 12 -42 30 2 23 35 -6 48 6 19 17 -29 11 -53 6 -63 -13z"/>
</g>
</svg>
